<svg class="img-fluid" id="outputsvg" xmlns="http://www.w3.org/2000/svg" style="transform: none; transform-origin: 50% 50%; cursor: move; max-height: none;" width="620" height="620" viewBox="0 0 6200 6200"><g id="l5xmjNOeYIa8l3WhuKJ2AYa" fill="rgb(255,255,255)" style="transform: none;"><g style="transform: none;"><path id="pibPTc4F" d="M 3375 5897 c -61 -21 -85 -36 -146 -93 l -55 -53 -665 -3 -664 -3 -35 -19 -35 -18 -109 -111 c -59 -61 -120 -127 -135 -146 l -26 -34 -3 -708 -3 -708 -432 -3 -432 -3 -61 -28 -61 -28 -46 -47 -46 -47 -24 -50 -25 -50 -11 -59 -11 -60 0 -935 0 -936 14 -56 13 -57 26 -44 26 -45 42 -37 42 -38 56 -27 56 -26 550 -3 550 -2 470 8 470 8 60 24 60 23 61 61 61 61 23 60 23 60 4 110 c 2 61 0 511 -4 1000 l -8 890 -29 58 -28 58 -48 48 -48 48 -45 19 -45 18 221 228 220 228 589 0 588 0 0 -9 c 0 -5 21 -32 46 -60 l 45 -50 67 -33 66 -33 76 1 75 0 63 28 63 29 49 54 49 53 21 58 22 57 -4 80 -4 81 -23 46 -22 46 -40 46 -40 45 -63 31 -63 31 -74 0 -74 0 -33 -10 c -19 -6 -53 -21 -77 -35 l -43 -26 -41 -46 c -23 -26 -41 -50 -41 -53 l 0 -6 -628 3 -629 4 -33 -17 -34 -18 -369 -363 -369 -364 -214 0 -214 0 0 638 0 637 63 72 62 72 604 1 604 0 58 -63 58 -64 63 -28 63 -29 75 0 75 0 57 26 57 26 45 42 46 42 27 57 28 56 0 90 0 90 -23 46 c -12 25 -37 63 -56 85 l -34 40 -64 34 -63 34 -80 3 -80 3 -40 -13 z  m -757 -3180 l 2 -938 -14 -5 -14 -5 -943 -2 -944 -2 -3 935 c -1 514 0 941 3 948 l 4 12 953 -2 953 -3 3 -938 z "></path><path id="p1AltpgZOW" d="M 1580 3047 l -56 -12 -45 -27 -46 -27 -33 -38 -33 -37 -20 -45 -20 -46 -5 -70 -4 -70 23 -60 22 -60 57 -57 57 -56 73 -23 72 -22 62 7 61 6 62 30 62 31 40 45 40 46 22 57 21 56 -4 70 -5 70 -21 48 -21 47 -50 49 -51 49 -52 20 -53 20 -50 5 -50 6 -55 -12 z "></path><path id="p11dOQso2f" d="M 3747 2610 c -20 -5 -56 -19 -79 -31 l -41 -21 -47 -44 -47 -44 -29 -63 -29 -62 0 -90 1 -90 22 -48 22 -48 51 -54 52 -55 56 -27 56 -27 95 -1 95 0 58 27 57 27 49 50 48 49 24 49 23 48 4 85 4 85 -22 58 -22 58 -54 58 -53 58 -61 27 -60 27 -68 4 -67 4 -38 -9 z "></path><path id="p15c5ICk5y" d="M 4905 2564 c -42 -22 -64 -44 -85 -84 l -18 -35 -16 -89 c -10 -49 -29 -125 -43 -170 l -25 -81 -38 -76 c -21 -42 -57 -105 -80 -140 l -43 -62 -73 -77 -73 -76 -78 -56 c -43 -32 -117 -77 -163 -102 l -85 -45 -90 -30 -90 -30 -103 -15 -104 -15 -31 -19 -32 -18 -22 -33 -22 -32 -7 -44 -6 -44 12 -36 12 -36 33 -33 33 -34 49 -11 49 -12 108 16 108 16 104 34 104 34 94 45 94 45 109 73 108 72 126 125 125 126 67 101 67 101 49 104 49 104 25 80 c 14 44 32 115 41 157 l 16 77 0 51 0 51 -19 37 c -23 45 -56 77 -94 91 l -28 11 -42 0 -42 0 -30 -16 z "></path><path id="pFhfjqIV6" d="M 5697 2560 l -37 -21 -26 -39 -26 -39 -14 -118 c -18 -149 -46 -267 -96 -413 l -40 -115 -49 -101 c -96 -196 -199 -343 -358 -507 l -86 -89 -85 -67 c -173 -138 -328 -229 -520 -305 l -116 -45 -134 -35 -135 -34 -95 -12 c -52 -6 -114 -13 -137 -16 l -42 -5 -33 -22 -33 -22 -22 -34 -23 -33 -6 -35 -7 -35 13 -41 12 -41 32 -32 32 -32 43 -13 43 -13 112 13 c 514 56 1016 288 1390 642 l 97 92 81 96 80 96 79 119 80 120 59 120 c 105 215 179 443 215 666 l 15 95 0 70 0 70 -18 34 -17 35 -38 30 -37 30 -58 3 -57 3 -38 -20 z "></path></g></g></svg>
